<?xml version="1.0" encoding="utf-8"?>
<!-- Generator: Adobe Illustrator 26.0.3, SVG Export Plug-In . SVG Version: 6.00 Build 0)  -->
<svg version="1.1" id="Layer_1" xmlns="http://www.w3.org/2000/svg" xmlns:xlink="http://www.w3.org/1999/xlink" x="0px" y="0px"
	 viewBox="0 0 640 480" style="enable-background:new 0 0 640 480;" xml:space="preserve">
<style type="text/css">
	.st0{fill:#231F20;}
	.st1{fill:#808080;}
	.st2{fill:#00549B;}
	.st3{fill:#FFFFFF;}
</style>
<path class="st0" d="M214.95,155.77v-41.48h-8.85v41.48c0,2.22,1.85,4.11,3.07,5.1H194.9c1.21-0.98,3-2.87,3-5.1V131
	c-3.07,2.47-6.14,3.87-10.28,3.87h-13.49c-4,0-6.85-2.63-6.85-7.08V96.93c0-2.14-1.78-4.03-3-5.1h26.33v6.5
	c-0.71-0.74-2-1.81-3.43-1.81h-11.27v33.66h12.13c4,0,7.56-0.99,9.85-2.22V94.21c0-2.22-1.78-4.12-3-5.1h14.2
	c-1.14,0.99-3,2.88-3,5.1v15.39h8.85V94.21c0-2.22-1.78-4.12-2.93-5.1h14.2c-1.21,0.99-3,2.88-3,5.1v61.56
	c0,2.22,1.86,4.11,3.07,5.1h-14.27C213.17,159.88,214.95,157.99,214.95,155.77z"/>
<path class="st0" d="M255.91,114.7c-2.36,7.41-11.7,15.22-17.98,16.13l-3.57-3.21c13.2-3.29,17.06-17.85,17.06-31.43h-9.49
	c-1.5,0-2.78,0.74-3.49,1.32v-6.09h35.04v6.09c-0.71-0.58-2-1.32-3.5-1.32h-9.49c0,13.66,3.78,27.98,17.06,31.43l-3.57,3.21
	C267.75,129.93,258.41,122.02,255.91,114.7 M249.63,153.79v-11.03c0-2.14-1.35-4.12-2.14-5.1h12.91c-0.85,0.99-2.07,2.88-2.07,5.1
	v13.41h32.19c1.92,0,3.71-1.32,4.56-2.14v6.83h-38.61C252.48,160.86,249.63,158.23,249.63,153.79 M292.8,136.84
	c0,2.47,0.86,4.2,1.5,5.1h-11.63c0.57-0.9,1.36-2.63,1.36-5.1v-26.5h-10.56c-1.43,0-2.71,0.74-3.5,1.24v-5.93h14.06V94.21
	c0-2.22-1.78-4.12-2.93-5.1h14.7c-1.22,0.99-3,2.88-3,5.1V136.84z"/>
<path class="st0" d="M344.61,155.77v-34.32h-8.56c-9.28,13.82-30.61,7.49-30.61-11.03c0-18.44,21.12-24.85,30.54-11.11h8.63v-5.1
	c0-2.22-1.79-4.12-3-5.1h27.26c-1.21,0.99-3,2.88-3,5.1v61.56c0,2.22,1.86,4.11,3.07,5.1h-27.33
	C342.82,159.88,344.61,157.99,344.61,155.77 M330.9,110.43c0-18.11-16.98-18.11-16.98,0C313.92,128.61,330.9,128.61,330.9,110.43
	 M338.33,104c1.36,4.44,1.43,8.31,0,12.75h6.28V104H338.33 M355.17,89.36c-1.28,1.32-2.57,2.96-2.57,4.85v61.56
	c0,1.89,1.28,3.45,2.64,4.77c1.28-1.23,2.57-2.8,2.57-4.77V94.21C357.81,92.24,356.52,90.67,355.17,89.36z"/>
<path class="st0" d="M413.54,133.71h18.91v15.8h-35.89v6.75h33.54c1.5,0,2.71-0.83,3.43-1.4v6h-38.89c-4.42,0-6.85-2.55-6.85-7.07
	v-3.79c0-2.31-1.71-4.04-2.93-5.02h38.89v-6.67h-33.18c-1.57,0-3,0.58-3.71,0.9v-5.51h17.98v-7.16h-26.61v-6.26
	c0.92,0.58,2.71,1.65,4.28,1.65h53.38c1.64,0,3.35-1.07,4.28-1.65v6.26h-26.62V133.71 M409.18,103.68
	c-3.21,7.82-16.27,12.84-25.12,12.92l-3.35-3.79c8.85-0.33,23.91-6.34,23.91-19.01c0-2.06-1.78-3.79-2.92-4.69h14.98
	c-1.14,0.9-2.93,2.63-2.93,4.69c0,12.59,15.13,18.68,23.91,19.01l-3.35,3.79C425.53,116.51,412.4,111.41,409.18,103.68z"/>
<path class="st0" d="M498.52,155.77v-17.53c-3.5,2.22-8.49,3.7-13.84,3.7h-32.9v-6.58c0.93,0.65,2.78,1.89,4.57,1.89h28.76
	c5.85,0,10.56-1.07,13.41-2.47V94.21c0-2.22-1.78-4.12-3-5.1h14.63c-1.21,0.99-3.07,2.88-3.07,5.1v61.56c0,2.22,1.86,4.11,3.07,5.1
	h-14.63C496.74,159.88,498.52,157.99,498.52,155.77 M489.89,108.12c0,22.8-36.25,22.8-36.25,0
	C453.64,85.16,489.89,85.16,489.89,108.12 M481.04,108.12c0-17.11-18.48-17.11-18.48,0C462.56,125.15,481.04,125.15,481.04,108.12z"
	/>
<path class="st0" d="M541.13,114.7c-2.35,7.41-11.7,15.22-17.98,16.13l-3.57-3.21c13.2-3.29,17.05-17.85,17.05-31.43h-9.49
	c-1.5,0-2.78,0.74-3.49,1.32v-6.09h35.04v6.09c-0.72-0.58-2-1.32-3.5-1.32h-9.49c0,13.66,3.78,27.98,17.05,31.43l-3.57,3.21
	C552.97,129.93,543.62,122.02,541.13,114.7 M534.85,153.79v-11.03c0-2.14-1.35-4.12-2.14-5.1h12.91c-0.85,0.99-2.07,2.88-2.07,5.1
	v13.41h32.19c1.92,0,3.71-1.32,4.57-2.14v6.83h-38.6C537.7,160.86,534.85,158.23,534.85,153.79 M578.02,136.84
	c0,2.47,0.86,4.2,1.5,5.1h-11.63c0.57-0.9,1.35-2.63,1.35-5.1v-26.5h-10.56c-1.43,0-2.71,0.74-3.5,1.24v-5.93h14.05V94.21
	c0-2.22-1.78-4.12-2.92-5.1h14.7c-1.22,0.99-3,2.88-3,5.1V136.84z"/>
<path class="st0" d="M646.17,107.3v21.4h-8.71v-9.05c-3.71,2.47-8.49,4.52-13.34,4.52h-22.84c-3.99,0-6.56-2.22-6.56-6.66V96.19
	c0-2.14-1.86-4.03-3.07-5.1h35.25v6.25c-0.71-0.66-2-1.56-3.43-1.56h-20.05v23.7h21.12c5.14,0,9.92-1.32,12.92-2.88v-22.3
	c0-2.22-1.86-4.11-3-5.18h14.7c-1.14,1.07-3,2.96-3,5.18v8.31h7.42c1.57,0,2.85-0.49,3.5-0.82v6.17c-0.64-0.25-1.93-0.66-3.5-0.66
	H646.17 M644.6,147.04c0,21.97-35.68,21.97-35.68,0C608.92,125.15,644.6,125.15,644.6,147.04 M635.75,147.04
	c0-15.63-18.06-15.63-18.06,0C617.69,162.59,635.75,162.59,635.75,147.04z"/>
<g>
	<path class="st1" d="M145.44,88.87c0,0-4.75,39.34-74.82,49.99v23.25h74.82V88.87z"/>
	<path class="st2" d="M63.72,137.51c0,0,63.44-7.78,74.96-48.53H30.32v73.14h33.39V137.51z"/>
</g>
<path class="st3" d="M214.95,255.77v-41.48h-8.85v41.48c0,2.22,1.85,4.11,3.07,5.1H194.9c1.21-0.98,3-2.87,3-5.1V231
	c-3.07,2.47-6.14,3.87-10.28,3.87h-13.49c-4,0-6.85-2.63-6.85-7.08v-30.86c0-2.14-1.78-4.03-3-5.1h26.33v6.5
	c-0.71-0.74-2-1.81-3.43-1.81h-11.27v33.66h12.13c4,0,7.56-0.99,9.85-2.22v-33.74c0-2.22-1.78-4.12-3-5.1h14.2
	c-1.14,0.99-3,2.88-3,5.1v15.39h8.85v-15.39c0-2.22-1.78-4.12-2.93-5.1h14.2c-1.21,0.99-3,2.88-3,5.1v61.56
	c0,2.22,1.86,4.11,3.07,5.1h-14.27C213.17,259.88,214.95,257.99,214.95,255.77z"/>
<path class="st3" d="M255.91,214.7c-2.36,7.41-11.7,15.22-17.98,16.13l-3.57-3.21c13.2-3.29,17.06-17.85,17.06-31.43h-9.49
	c-1.5,0-2.78,0.74-3.49,1.32v-6.09h35.04v6.09c-0.71-0.58-2-1.32-3.5-1.32h-9.49c0,13.66,3.78,27.98,17.06,31.43l-3.57,3.21
	C267.75,229.93,258.41,222.02,255.91,214.7 M249.63,253.79v-11.03c0-2.14-1.35-4.12-2.14-5.1h12.91c-0.85,0.99-2.07,2.88-2.07,5.1
	v13.41h32.19c1.92,0,3.71-1.32,4.56-2.14v6.83h-38.61C252.48,260.86,249.63,258.23,249.63,253.79 M292.8,236.84
	c0,2.47,0.86,4.2,1.5,5.1h-11.63c0.57-0.9,1.36-2.63,1.36-5.1v-26.5h-10.56c-1.43,0-2.71,0.74-3.5,1.24v-5.93h14.06v-11.44
	c0-2.22-1.78-4.12-2.93-5.1h14.7c-1.22,0.99-3,2.88-3,5.1V236.84z"/>
<path class="st3" d="M344.61,255.77v-34.32h-8.56c-9.28,13.82-30.61,7.49-30.61-11.02c0-18.44,21.12-24.85,30.54-11.11h8.63v-5.1
	c0-2.22-1.79-4.12-3-5.1h27.26c-1.21,0.99-3,2.88-3,5.1v61.56c0,2.22,1.86,4.11,3.07,5.1h-27.33
	C342.82,259.88,344.61,257.99,344.61,255.77 M330.9,210.43c0-18.11-16.98-18.11-16.98,0C313.92,228.61,330.9,228.61,330.9,210.43
	 M338.33,204c1.36,4.44,1.43,8.31,0,12.75h6.28V204H338.33 M355.17,189.36c-1.28,1.32-2.57,2.96-2.57,4.85v61.56
	c0,1.89,1.28,3.45,2.64,4.77c1.28-1.23,2.57-2.8,2.57-4.77v-61.56C357.81,192.24,356.52,190.67,355.17,189.36z"/>
<path class="st3" d="M413.54,233.71h18.91v15.8h-35.89v6.75h33.54c1.5,0,2.71-0.83,3.43-1.4v6h-38.89c-4.42,0-6.85-2.55-6.85-7.07
	v-3.79c0-2.31-1.71-4.04-2.93-5.02h38.89v-6.67h-33.18c-1.57,0-3,0.58-3.71,0.9v-5.51h17.98v-7.16h-26.61v-6.26
	c0.92,0.58,2.71,1.65,4.28,1.65h53.38c1.64,0,3.35-1.07,4.28-1.65v6.26h-26.62V233.71 M409.18,203.68
	c-3.21,7.82-16.27,12.84-25.12,12.92l-3.35-3.79c8.85-0.33,23.91-6.34,23.91-19.01c0-2.06-1.78-3.79-2.92-4.69h14.98
	c-1.14,0.9-2.93,2.63-2.93,4.69c0,12.59,15.13,18.68,23.91,19.01l-3.35,3.79C425.53,216.51,412.4,211.41,409.18,203.68z"/>
<path class="st3" d="M498.52,255.77v-17.53c-3.5,2.22-8.49,3.7-13.84,3.7h-32.9v-6.58c0.93,0.65,2.78,1.89,4.57,1.89h28.76
	c5.85,0,10.56-1.07,13.41-2.47v-40.57c0-2.22-1.78-4.12-3-5.1h14.63c-1.21,0.99-3.07,2.88-3.07,5.1v61.56c0,2.22,1.86,4.11,3.07,5.1
	h-14.63C496.74,259.88,498.52,257.99,498.52,255.77 M489.89,208.12c0,22.8-36.25,22.8-36.25,0
	C453.64,185.16,489.89,185.16,489.89,208.12 M481.04,208.12c0-17.11-18.48-17.11-18.48,0C462.56,225.15,481.04,225.15,481.04,208.12
	z"/>
<path class="st3" d="M541.13,214.7c-2.35,7.41-11.7,15.22-17.98,16.13l-3.57-3.21c13.2-3.29,17.05-17.85,17.05-31.43h-9.49
	c-1.5,0-2.78,0.74-3.49,1.32v-6.09h35.04v6.09c-0.72-0.58-2-1.32-3.5-1.32h-9.49c0,13.66,3.78,27.98,17.05,31.43l-3.57,3.21
	C552.97,229.93,543.62,222.02,541.13,214.7 M534.85,253.79v-11.03c0-2.14-1.35-4.12-2.14-5.1h12.91c-0.85,0.99-2.07,2.88-2.07,5.1
	v13.41h32.19c1.92,0,3.71-1.32,4.57-2.14v6.83h-38.6C537.7,260.86,534.85,258.23,534.85,253.79 M578.02,236.84
	c0,2.47,0.86,4.2,1.5,5.1h-11.63c0.57-0.9,1.35-2.63,1.35-5.1v-26.5h-10.56c-1.43,0-2.71,0.74-3.5,1.24v-5.93h14.05v-11.44
	c0-2.22-1.78-4.12-2.92-5.1h14.7c-1.22,0.99-3,2.88-3,5.1V236.84z"/>
<path class="st3" d="M646.17,207.3v21.4h-8.71v-9.05c-3.71,2.47-8.49,4.52-13.34,4.52h-22.84c-3.99,0-6.56-2.22-6.56-6.66v-21.31
	c0-2.14-1.86-4.03-3.07-5.1h35.25v6.25c-0.71-0.66-2-1.56-3.43-1.56h-20.05v23.7h21.12c5.14,0,9.92-1.32,12.92-2.88v-22.3
	c0-2.22-1.86-4.11-3-5.18h14.7c-1.14,1.07-3,2.96-3,5.18v8.31h7.42c1.57,0,2.85-0.49,3.5-0.82v6.17c-0.64-0.25-1.93-0.66-3.5-0.66
	H646.17 M644.6,247.04c0,21.97-35.68,21.97-35.68,0C608.92,225.15,644.6,225.15,644.6,247.04 M635.75,247.04
	c0-15.63-18.06-15.63-18.06,0C617.69,262.59,635.75,262.59,635.75,247.04z"/>
<g>
	<path class="st1" d="M145.44,188.87c0,0-4.75,39.34-74.82,49.99v23.25h74.82V188.87z"/>
	<path class="st2" d="M63.72,237.51c0,0,63.44-7.78,74.96-48.53H30.32v73.14h33.39V237.51z"/>
</g>
</svg>
